<?xml version="1.0" encoding="utf-8"?>
<!-- Generator: Adobe Illustrator 17.0.0, SVG Export Plug-In . SVG Version: 6.00 Build 0)  -->
<!DOCTYPE svg PUBLIC "-//W3C//DTD SVG 1.1//EN" "http://www.w3.org/Graphics/SVG/1.1/DTD/svg11.dtd">
<svg version="1.1" xmlns="http://www.w3.org/2000/svg" xmlns:xlink="http://www.w3.org/1999/xlink" x="0px" y="0px"
	 width="1464.241px" height="1141.771px" viewBox="0 0 1464.241 1141.771" enable-background="new 0 0 1464.241 1141.771"
	 xml:space="preserve">
<g id="Layer_1">
	<g id="Layer_1_1_">
	</g>
	<g id="Layer_4">
	</g>
	<g id="Nav">
	</g>
	<g id="Layer_2">
	</g>
	<g id="svg37252">
		
			<linearGradient id="SVGID_1_" gradientUnits="userSpaceOnUse" x1="-123.345" y1="593.654" x2="504.592" y2="593.654" gradientTransform="matrix(1 0 0 -1 123.345 1316.5959)">
			<stop  offset="0" style="stop-color:#FBB040;stop-opacity:0"/>
			<stop  offset="1" style="stop-color:#F15A29"/>
		</linearGradient>
		<path fill="url(#SVGID_1_)" d="M584.391,477.196c-80.769,64.568-241.335,49.599-412.669,61.57
			C100.199,543.763,43.827,554.96,0,568.125v400.563c66.704-76.854,176.142-180.576,309.722-223.922
			c170.992-55.487,237.446-140.949,318.215-205.517L584.391,477.196z"/>
		
			<linearGradient id="SVGID_2_" gradientUnits="userSpaceOnUse" x1="-123.345" y1="518.179" x2="496.409" y2="518.179" gradientTransform="matrix(1 0 0 -1 123.345 1316.5959)">
			<stop  offset="0" style="stop-color:#FBB040;stop-opacity:0"/>
			<stop  offset="1" style="stop-color:#F15A29"/>
		</linearGradient>
		<path fill="url(#SVGID_2_)" d="M563.244,455.063c-134.888,57.128-239.112,50.872-344.918,20.871
			C139.8,453.669,81.874,453.453,0,485.443v656.328c74.12-84.329,195.895-166.994,254.798-193.121
			c135.843-60.255,188.333-65.34,244.333-179.34s37.559-122.245,120.623-217.071L563.244,455.063z"/>
		
			<linearGradient id="SVGID_3_" gradientUnits="userSpaceOnUse" x1="-123.345" y1="625.2885" x2="495.552" y2="625.2885" gradientTransform="matrix(1 0 0 -1 123.345 1316.5959)">
			<stop  offset="0" style="stop-color:#FBB040;stop-opacity:0"/>
			<stop  offset="1" style="stop-color:#FBB040;stop-opacity:0.8"/>
		</linearGradient>
		<path fill="url(#SVGID_3_)" d="M595.832,487.923c-104.777,66.843-248.279,110.761-423.298,157.652
			C94.231,666.554,38.866,690.282,0,712.194v182.498c28.366-51.06,89.773-121.635,220.222-159.79
			c173.944-50.877,264.166-189.469,398.675-237.431L595.832,487.923z"/>
	</g>
	<g id="Isolation_Mode">
		<g>
			
				<linearGradient id="SVGID_4_" gradientUnits="userSpaceOnUse" x1="-123.345" y1="677.121" x2="477.454" y2="677.121" gradientTransform="matrix(1 0 0 -1 123.345 1316.5959)">
				<stop  offset="0" style="stop-color:#FBB040;stop-opacity:0"/>
				<stop  offset="1" style="stop-color:#FBB040;stop-opacity:0.8"/>
			</linearGradient>
			<path fill="url(#SVGID_4_)" d="M151.461,605.09C95.852,639.386,44.704,655.603,0,661.281v137.802
				c45.666-10.555,109.166-35.13,191.497-88.844c151.581-98.893,292.75-201.071,401.855-205.293l7.447-25.079
				C461.329,501.724,305.515,510.078,151.461,605.09z"/>
		</g>
		
			<linearGradient id="SVGID_5_" gradientUnits="userSpaceOnUse" x1="-123.345" y1="515.336" x2="501.85" y2="515.336" gradientTransform="matrix(1 0 0 -1 123.345 1316.5959)">
			<stop  offset="0" style="stop-color:#FBB040;stop-opacity:0"/>
			<stop  offset="1" style="stop-color:#FBB040;stop-opacity:0.8"/>
		</linearGradient>
		<path fill="url(#SVGID_5_)" d="M610.389,522.933c-74.597,93.331-252.467,157.606-427.334,205.833
			C96.693,752.584,38.661,778.577,0,801.418v278.169c29.545-69.595,96.652-176.646,239.055-220.821
			c173.512-53.825,278.18-220.703,386.14-325.601L610.389,522.933z"/>
		
			<linearGradient id="SVGID_6_" gradientUnits="userSpaceOnUse" x1="-123.345" y1="646.1625" x2="487.044" y2="646.1625" gradientTransform="matrix(1 0 0 -1 123.345 1316.5959)">
			<stop  offset="0" style="stop-color:#FBB040;stop-opacity:0"/>
			<stop  offset="1" style="stop-color:#FBB040;stop-opacity:0.8"/>
		</linearGradient>
		<path fill="url(#SVGID_6_)" d="M598.055,511.849c-90.058,78.517-264.334,83.583-445,99.823
			C89.156,617.417,39.045,629.438,0,643.778v185.24c42.213-38.61,101.507-72.019,183.722-82.044
			c180.333-21.989,301.717-140.099,426.667-224.042L598.055,511.849z"/>
	</g>
	<g id="Layer_7">
		<g>
			<path fill="#E6E6E6" d="M1134.505,249.499c165.993-94.365,288.93-191.314,274.587-216.543
				c-14.342-25.229-160.532,30.817-326.525,125.182c-9.386,5.336-18.633,10.68-27.727,16.019l51.717,90.973
				C1115.796,260.047,1125.118,254.835,1134.505,249.499z"/>
			<polygon fill="#E6E6E6" points="1085.369,287.584 1106.667,265.324 1106.557,265.13 1054.84,174.157 1054.729,173.963 
				1024.708,180.878 1029.48,189.272 1080.597,279.19 			"/>
			
				<linearGradient id="SVGID_7_" gradientUnits="userSpaceOnUse" x1="3207.9363" y1="-652.5698" x2="3207.9363" y2="-119.4926" gradientTransform="matrix(0.4942 0.8693 0.8693 -0.4942 -503.9037 -2569.3813)">
				<stop  offset="0" style="stop-color:#A7A9AC"/>
				<stop  offset="1" style="stop-color:#E6E7E8"/>
			</linearGradient>
			<polygon fill="url(#SVGID_7_)" points="1085.399,287.637 1024.738,180.931 589.03,428.625 649.692,535.332 			"/>
			
				<rect x="775.822" y="107.454" transform="matrix(-0.4942 -0.8693 0.8693 -0.4942 939.6921 1262.7909)" fill="#E6E6E6" width="122.739" height="501.171"/>
			<path fill="#E6E6E6" d="M663.021,527.754c0,0-21.242-21.801-37.048-49.605c-14.606-25.693-23.613-57.102-23.613-57.102
				l-70.245-11.229l104.563,183.933L663.021,527.754z"/>
			<g opacity="0.5">
				<path fill="#FFFFFF" d="M1026.178,224.268l-11.947-21.016c10.455-6.064,21.162-12.122,31.92-18.238
					C1236.409,76.854,1404.249,19.09,1414.48,37.085c1.729,3.041-53.917,6.986-65.13,11.411
					C1266.149,81.324,1110.093,182.712,1026.178,224.268z"/>
				<path fill="#FFFFFF" d="M1022.009,226.313c-6.489,3.148-17.438,7.441-27.074,11.451l-12.307-21.648l-3.404-5.988l0,0
					l34.928-7.015l0.079,0.139l11.947,21.016C1024.769,224.965,1023.377,225.649,1022.009,226.313z"/>
				<path fill="#FFFFFF" d="M994.935,237.764c-5.298,2.205-10.2,4.324-13.742,6.119c-113.449,57.497-214.837,128.41-324.082,186.585
					c-9.658,5.143-28.076,14.04-41.969,19.783c-5.771-14.822-10.809-26.097-10.915-26.942l374.997-213.181l3.404,5.988
					L994.935,237.764z"/>
			</g>
			<g opacity="0.2">
				<path fill="#58595B" d="M762.453,333.557c-1.573-2.624,27.966-17.302,33.108-20.496c9.624-5.977,225.58-126.003,230.721-126.813
					c16.377-4.676,26.186-7.012,41.378-9.912c2.493-0.476,7.813-1.217,8.596-5.103c0.885-4.39,6.899-5.592,11.888-3.567
					c0.532,0.216,1.232,0.359,1.687,0.169c6.91-2.889,11.242,5.618,14.429,10.515c11.427,17.556,9.09,14.898,22.901,7.299
					c11.4-6.273,22.653-12.81,33.934-19.295c3.636-2.09,6.682-4.704,6.706-10.004c0.034-7.498-4.652-11.36-10.767-8.661
					c-5.751,2.538-11.453,5.179-17.529,7.169c8.344-7.53,18.844-11.587,28.696-18.247c-2.939-0.331-4.324,1.248-6.02,1.934
					c-1.592,0.643-3.27,1.479-4.669-0.753c-1.466-2.339,0.149-3.524,1.486-4.472c5.753-4.078,22.784-16.525,26.438-17.42
					c3.776-0.925,6.484-0.127,9.325,3.546c7.099,9.18,24.247,40.474,27.397,46.015c0.786-0.668,0-1.298-0.26-1.795
					c-4.2-8.035-4.218-8.046,2.307-12.119c1.764-1.101,3.362-2.382,4.291-4.379c0.397-0.854,0.938-2.543,0.688-2.753
					c-7.319-6.149-7.064-15.234-12.976-23.315c-1.807-2.47-2.755-4.877-2.722-8.683c4.106,4.707,7.51,11.948,10.304,17.225
					c3.167,5.981,5.576,9.4,11.03,13.225c2.481,1.74,4.514,1.433,6.538,0.323c5.101-2.796,9.32-6.793,13.278-11.101
					c1.698-1.849,1.752-3.999,0.428-6.809c-3.166-6.717-5.911-10.696-9.973-18.518c-0.862-1.66-2.501-4.64-2.598-8.397
					c4.549,6.504,7.074,13.131,10.633,18.699c1.983,3.102,3.5,4.457,6.562,2.478c4.998-3.231,10.202-6.156,15.477-8.916
					c4.614-2.414,4.664-5.872,1.636-10.647c-8.06-12.71-8.023-12.721,3.007-19.001c8.249-4.696,16.563-9.282,24.684-14.193
					c3.546-2.144,6.17-1.559,9.07,2.346c2.728,3.672,17.092,51.403,14.986,52.931c-28.827,20.901-33.348,24.207-77.669,52.981
					c-22.209,14.419-39.398,25.499-62.89,39.57c-13.883,8.315-32.627,19.292-46.712,27.271
					c-1.845,1.045-34.615,19.355-35.455,20.275c-9.273,10.154-10.763,11.368-21.854,21.669
					c-1.248,1.317-39.601,22.707-43.157,24.723c-34.974,19.821-70.414,38.866-104.703,59.831
					c-23.312,14.254-242.643,136.896-272.766,153.946c-3.66,2.072-6.496,19.371-10.128,22.266
					c-3.171,2.528-12.601,30.048-17.148,35.277c-2.048,2.355-4.812,1.389-6.539-1.329c-5.757-9.059-24.234-42.941-33.598-59.655
					c-1.916-3.42-0.368-2.99-0.076-6.847c0.37-4.877-2.59-8.596-4.96-12.954c-2.187-4.022-5.887-10.949-11.552-11.055
					c-1.664-0.031-3.085-2.17-4.097-3.832c-4.075-6.688-23.967-41.54-27.315-48.659c-1.765-3.753-7.39-14.087-8.671-17.991
					c-0.518-2.788,21.702,2.14,27.357,2.599c5.302,0.43,28.381,2.545,37.085,3.634c1.561,0.195,30.508-15.26,42.39-22.29
					c20.008-11.836,41.257-22.905,60.655-35.389c10.419-5.274,21.206-11.909,31.711-17.242c-4.314,4.091-9.851,7.062-14.827,9.892
					c-4.58,3.327-8.764,4.168-4.923,14.409c0.376,1.002,0.881,1.965,1.911,4.233c0.118-5.125,2.588-7.113,5.402-8.72
					c13.254-7.566,26.524-15.102,39.791-22.644c0.646-0.367,1.295-0.748,1.992-1.008c2.522-0.942,4.92,0.363,6.186,2.669
					c1.558,2.839-1.268,3.318-2.704,4.145c-13.87,7.988-27.797,15.874-41.709,23.79c-1.762,1.003-3.525,2.004-4.774,3.938
					c15.922-9.051,31.843-18.103,47.765-27.154c0.237,0.413,0.475,0.826,0.712,1.239c-16.309,9.271-32.618,18.543-48.927,27.814
					c0.245,0.433,0.491,0.867,0.736,1.3c16.86-9.585,33.72-19.169,50.58-28.754c0.329,0.546,0.657,1.092,0.986,1.638
					c-12.317,7.002-24.633,14.004-36.95,21.005c0.303,0.533,0.606,1.066,0.909,1.6c12.45-7.078,24.9-14.155,37.35-21.233
					c0.231,0.408,0.462,0.817,0.694,1.225c-17.004,9.667-34.008,19.333-51.012,29c0.195,0.339,0.389,0.678,0.584,1.017
					c16.932-9.626,33.865-19.252,50.797-28.878c0.197,0.34,0.394,0.68,0.591,1.02c-16.894,9.604-33.787,19.208-50.681,28.811
					c0.242,0.459,0.485,0.917,0.727,1.376c1.45-0.824,2.899-1.649,4.35-2.473c14.403-8.181,28.779-16.408,43.242-24.481
					c1.716-0.958,3.946-3.808,5.913-0.56c2.05,3.385-1.534,3.925-3.233,4.907c-14.342,8.286-28.764,16.433-43.162,24.622
					c-1.54,0.876-3.08,1.751-3.973,3.702c11.45-6.509,22.685-13.432,34.439-19.359c6.139-3.095,10.784-9.704,19.089-8.199
					c-2.457,8.708-11.093,8.755-16.918,12.57c-10.872,7.122-22.493,13.057-34.12,19.667c2.373,1.041,3.361-0.557,4.578-1.241
					c14.765-8.295,29.455-16.725,44.24-24.985c1.463-0.817,3.227-3.576,5.244-0.031c2.031,3.57-1.248,3.684-2.719,4.534
					c-14.34,8.289-28.763,16.435-43.162,24.622c-1.59,0.904-3.18,1.808-4.77,2.712c0.203,0.353,0.406,0.706,0.61,1.058
					c9.112-5.18,18.224-10.361,27.336-15.54c6.148-3.495,12.545-6.609,18.369-10.6c4.615-3.163,9.023-2.711,13.165,1.537
					c4.952,8.712,14.137,6.294,3.972-11.586c-9.61-17.58-13.253-24.112-20.486-38.729c-1.748-3.532-4.862-6.682-7.461-5.285
					C772.242,328.509,769.12,330.946,762.453,333.557z M719.185,386.393c-2.752-4.166-5.413-2.349-8.029-0.836
					c-9.503,5.5-14.542,8.473-24.206,13.684c-8.662,4.671-30.868,18.552-39.723,21.354c6.68,2.174,10.554-0.478,15.12,8.057
					c2.313,4.322,4.212,7.097,7.261,13.928c1.057,2.369,2.446,4.608,3.736,6.877c2.225,3.915,11.713-3.516,15.776-5.696
					c15.865-8.512,31.394-17.64,47.048-26.539c-2.57-5.252-5.076-8.339-7.209-12.024
					C727.433,402.565,723.009,393.119,719.185,386.393z M914.86,296.543c4.715-2.476,12.684,3.745,16.584,10.606
					c6.847,12.044,65.854-27.846,78.682-35.138c5.328-3.029,9.45-6.677-0.531-22.399c-2.759-4.346-5.632-6.416-1.161-9.902
					c4.196,5.648,7.585,11.74,11.114,17.75c1.36,2.316,2.655,5.776,5.814,4.156c3.198-1.64,2.445-4.896,0.816-8.094
					c-2.76-5.419-5.267-10.992-8.355-16.215c-5.171-8.746-9.361-18.09-15.646-26.175c-1.701-2.188-3.511-3.085-5.716-2.491
					c-1.843,0.497-4.599,0.166-3.86,3.704c0.367,1.755-0.248,2.347-1.706,2.142c-3.805-0.536-6.428,1.786-9.301,3.407
					c-16.512,9.316-33.261,18.247-49.343,28.273c-7.867,4.905-24.588,10.032-17.916,24.128c-9.544,6.045-16.173,9.387-28.923,16.345
					c-3.428,1.222-1.772,5.008-0.19,8.089c4.891,8.603,7.844,14.157,17.633,8.591C902.857,303.322,905.103,301.667,914.86,296.543z
					 M1150.276,185.352c0.005,0.008,0.01,0.017,0.014,0.025c12.6-7.163,25.213-14.301,37.781-21.519
					c1.566-0.9,4.605-1.127,2.536-4.608c-1.815-3.054-3.419-0.848-4.863-0.03c-24.895,14.109-49.762,28.266-74.635,42.415
					c-0.484,0.276-1.003,0.508-1.435,0.857c-1.356,1.098-3.944,1.731-2.328,4.455c1.329,2.241,3.149,0.775,4.616,0.116
					c1.185-0.533,2.289-1.234,3.42-1.876C1127.016,198.576,1138.646,191.963,1150.276,185.352z M796.788,395.229
					c-0.232-0.299-0.463-0.599-0.695-0.898c-14.703,8.358-29.404,16.718-44.109,25.072c-1.293,0.735-2.587,1.473-3.919,2.136
					c-1.257,0.626-2.552,0.795-3.601-0.898c-1.096-1.77-0.219-2.793,0.932-3.55c1.553-1.023,3.174-1.939,4.79-2.859
					c15.151-8.621,30.306-17.234,45.461-25.849c-2.313-0.021-4.053,0.97-5.795,1.958c-14.885,8.444-29.8,16.836-44.604,25.42
					c-1.271,0.737-5.184-0.435-3.021,3.872c1.66,3.305,3.61,4.602,6.632,2.872C764.812,413.373,780.807,404.313,796.788,395.229z
					 M880.44,337.56c17.161-6.358,31.602-17.517,47.321-26.439C910.39,317.093,895.391,327.273,880.44,337.56z M854.166,293.288
					c16.07-9.039,29.357-16.503,46.294-25.811c-5.274-1.456-5.756-0.545-10.619,2.383c-1.106,0.666-21.398,12.235-30.384,17.432
					C857.606,288.363,855.315,288.995,854.166,293.288z"/>
			</g>
			<g opacity="0.3">
				<path fill="#58595B" d="M654.008,546.138c1.463-3.73,4.775-17.505,7.653-21.801c0,0-20.179-23.909-33.831-47.924
					c-13.207-23.231-23.434-52.809-23.434-52.809c-0.836,0.311-1.971-0.569-2.147-0.599c-8.448-1.434-30.819-4.454-35.956-5.091
					c-5.48-0.68-27.128-6.513-26.521-3.673c1.387,3.998,7.214,14.662,9.062,18.525c3.506,7.327,24.049,43.333,28.24,50.251
					c1.041,1.719,1.953,2.984,3.562,3.079c5.475,0.324,7.961,1.495,13.554,11.334c7.963,14.007,1.77,17.207,4.185,21.456
					c9.78,17.204,28.821,52.229,34.728,61.611c1.772,2.815,4.479,3.897,6.366,1.594
					C643.661,576.978,652.133,550.919,654.008,546.138z"/>
			</g>
			<g opacity="0.3">
				<path fill="#FFFFFF" d="M1104.943,229.995l9.418,16.568c11.362-6.364,22.876-12.932,34.469-19.523
					C1353.843,110.492,1190.436,176.546,1104.943,229.995z"/>
				<path fill="#FFFFFF" d="M1100.712,232.657c-6.558,4.155-16.809,11.505-26.015,17.895l9.702,17.066l2.683,4.72l0,0l27.342-25.667
					l-0.062-0.109l-9.418-16.568C1103.508,230.892,1102.094,231.781,1100.712,232.657z"/>
				<path fill="#FFFFFF" d="M1074.697,250.552c-5.061,3.514-9.809,6.738-13.451,8.981
					c-116.637,71.823-236.53,129.515-351.096,197.742c-10.128,6.032-39.066,23.723-52.308,32.949
					c-11.988,7.333,10.624,18.688,11.227,19.748l418.013-237.635l-2.683-4.72L1074.697,250.552z"/>
			</g>
			
				<linearGradient id="SVGID_8_" gradientUnits="userSpaceOnUse" x1="3158.6396" y1="342.0189" x2="3256.8704" y2="342.0189" gradientTransform="matrix(0.4942 0.8693 0.8693 -0.4942 -503.9037 -2569.3813)">
				<stop  offset="0" style="stop-color:#FBB040"/>
				<stop  offset="1" style="stop-color:#F15A29"/>
			</linearGradient>
			<path fill="url(#SVGID_8_)" d="M1317.624,141.449c65.753-47.748,151.462-131.103,146.403-140.002
				c-4.817-8.473-118.518,21.73-191.265,52.516c11.342,4.681,25.589,14.495,37.264,35.032
				C1322.73,111.344,1321.07,129.988,1317.624,141.449z"/>
		</g>
	</g>
</g>
<g id="Layer_7_1_">
	<g>
		<path fill="#191E3B" d="M954.898,330.652c-0.578,0.418-1.225,0.765-1.695,1.038c-0.49,0.284-1.051,0.637-1.66,0.905
			c0.174,0.394,0.371,1.016,0.523,1.61c0.039,0.114,0.002,0.19-0.102,0.25l-3.25,1.884c-0.205,0.118-0.252,0.036-0.299-0.183
			l-2.182-11.547c-0.01-0.158-0.014-0.212,0.068-0.259l4.172-2.418c0.082-0.047,0.199-0.032,0.299,0.046l9.096,7.542
			c0.148,0.159,0.174,0.254-0.029,0.372l-3.498,2.026c-0.082,0.047-0.188,0.055-0.266-0.036
			C955.65,331.528,955.197,331.026,954.898,330.652z M950.906,329.988c0.324-0.242,0.713-0.468,1-0.634
			c0.285-0.166,0.695-0.402,0.973-0.536c-0.887-0.824-2.371-2.396-3.264-3.464C950.089,326.692,950.685,328.805,950.906,329.988z"/>
		<path fill="#191E3B" d="M964.177,327.38l-3.252,1.884c-0.102,0.06-0.244,0.006-0.303-0.097l-5.568-9.611
			c-0.049-0.082-0.025-0.232,0.076-0.292l4.99-2.891c2.762-1.6,4.992-1.145,6.225,0.982c1.387,2.394,0.109,4.717-2.119,6.008
			c-0.941,0.546-1.422,0.798-1.721,0.942c0.377,0.464,1.074,1.618,1.75,2.784C964.302,327.172,964.259,327.333,964.177,327.38z
			 M962.839,319.414c-0.426-0.736-1.016-0.997-1.791-0.547c-0.451,0.261-0.83,0.454-1.305,0.675
			c0.215,0.229,0.553,0.717,0.838,1.208c0.236,0.408,0.48,0.923,0.607,1.286c0.357-0.234,0.672-0.443,1.102-0.692
			C963.169,320.834,963.314,320.231,962.839,319.414z"/>
		<path fill="#191E3B" d="M978.572,312.237c1.529,2.64,1.428,6.331-2.254,8.464c-3.641,2.109-6.934,0.385-8.463-2.255
			c-1.518-2.617-1.34-6.271,2.301-8.38C973.837,307.933,977.054,309.62,978.572,312.237z M974.865,314.468
			c-1.078-1.861-1.93-2.433-3.156-1.722c-1.268,0.734-1.129,1.774-0.076,3.595c1.104,1.901,1.945,2.506,3.193,1.783
			C976.052,317.413,975.943,316.329,974.865,314.468z"/>
		<path fill="#191E3B" d="M985.177,311.799c0.336-0.224,1.027-0.678,1.742-1.093c1.352-0.782,2.244-1.409,2.367-1.48
			c0.184-0.106,0.305-0.039,0.34,0.021l1.203,2.5c0.035,0.061,0.041,0.166-0.061,0.226l-7.445,4.313
			c-0.102,0.06-0.254-0.015-0.289-0.076l-5.57-9.612c-0.059-0.102-0.037-0.252,0.066-0.312l3.252-1.884
			c0.082-0.047,0.242-0.004,0.301,0.098C982.339,306.667,984.281,310.159,985.177,311.799z"/>
		<path fill="#191E3B" d="M994.199,306.571c0.334-0.223,1.027-0.678,1.742-1.092c1.35-0.782,2.244-1.409,2.367-1.48
			c0.184-0.106,0.303-0.04,0.34,0.021l1.201,2.499c0.035,0.061,0.043,0.167-0.061,0.226l-7.443,4.313
			c-0.102,0.06-0.254-0.016-0.291-0.077l-5.568-9.612c-0.059-0.102-0.037-0.251,0.066-0.311l3.25-1.884
			c0.082-0.048,0.244-0.004,0.303,0.098C991.361,301.44,993.302,304.932,994.199,306.571z"/>
		<path fill="#191E3B" d="M1008.437,294.932c1.529,2.64,1.428,6.331-2.254,8.464c-3.641,2.109-6.934,0.385-8.463-2.255
			c-1.516-2.617-1.34-6.271,2.301-8.38C1003.703,290.629,1006.919,292.315,1008.437,294.932z M1004.73,297.164
			c-1.078-1.861-1.93-2.434-3.156-1.723c-1.268,0.734-1.129,1.774-0.076,3.595c1.104,1.901,1.945,2.506,3.193,1.783
			C1005.917,300.108,1005.808,299.025,1004.73,297.164z"/>
		<path fill="#191E3B" d="M1026.081,288.178c0.123-0.071,0.209-0.064,0.279,0.058c0.012,0.021,0.035,0.061,0.047,0.082l0.91,2.231
			c0.07,0.122,0.004,0.242-0.139,0.325l-8.793,5.096c-0.164,0.095-0.84-0.742-1.029-1.069c-0.166-0.286-0.25-0.43-0.121-0.586
			c2.674-3.161,4.02-6.592,3.18-8.043c-0.285-0.491-0.768-1.277-2.098-0.507c-0.961,0.558-1.033,1.282-0.547,2.12
			c0.344,0.593,0.033,1.376-0.971,1.956c-0.816,0.475-1.871,0.21-2.369-0.648c-1.09-1.882-0.674-4.417,2.68-6.36
			c2.332-1.352,5.055-1.508,6.465,0.926s-0.092,5.216-2.426,7.743C1022.124,290.635,1024.956,288.83,1026.081,288.178z"/>
		<path fill="#191E3B" d="M1036.607,278.666c1.73,2.985,1.344,6.324-2.133,8.339c-3.314,1.92-6.451,0.65-8.193-2.355
			c-1.742-3.007-1.102-6.52,2.131-8.392C1031.785,274.302,1034.89,275.7,1036.607,278.666z M1032.9,280.894
			c-1.48-2.556-2.18-2.915-3.244-2.299c-1.063,0.616-1.004,1.566,0.381,3.958c1.471,2.537,2.275,2.89,3.299,2.297
			C1034.316,284.282,1034.417,283.512,1032.9,280.894z"/>
		<path fill="#191E3B" d="M1049.115,274.833c0.123-0.071,0.207-0.064,0.279,0.058c0.012,0.021,0.035,0.061,0.047,0.082l0.91,2.231
			c0.07,0.122,0.004,0.242-0.139,0.325l-8.795,5.096c-0.162,0.095-0.84-0.742-1.029-1.069c-0.166-0.286-0.248-0.43-0.119-0.586
			c2.674-3.161,4.02-6.592,3.18-8.043c-0.285-0.491-0.768-1.277-2.098-0.507c-0.961,0.557-1.033,1.282-0.547,2.12
			c0.344,0.593,0.031,1.376-0.971,1.956c-0.816,0.475-1.871,0.21-2.369-0.648c-1.09-1.882-0.674-4.417,2.68-6.36
			c2.33-1.352,5.053-1.508,6.463,0.926s-0.09,5.216-2.424,7.743C1045.156,277.29,1047.99,275.484,1049.115,274.833z"/>
		<path fill="#191E3B" d="M1060.63,268.16c0.123-0.071,0.209-0.064,0.279,0.058c0.012,0.021,0.035,0.061,0.047,0.082l0.912,2.231
			c0.07,0.122,0.004,0.242-0.141,0.325l-8.793,5.096c-0.164,0.095-0.84-0.742-1.029-1.069c-0.166-0.286-0.25-0.43-0.121-0.586
			c2.676-3.161,4.021-6.592,3.18-8.043c-0.285-0.491-0.768-1.277-2.096-0.507c-0.961,0.557-1.033,1.282-0.549,2.12
			c0.344,0.593,0.033,1.376-0.969,1.956c-0.818,0.475-1.873,0.21-2.369-0.648c-1.092-1.882-0.676-4.417,2.678-6.36
			c2.332-1.352,5.055-1.508,6.465,0.926s-0.092,5.216-2.426,7.743C1056.673,270.617,1059.505,268.811,1060.63,268.16z"/>
	</g>
</g>
</svg>
